<?xml version="1.0" standalone="no"?>
<!DOCTYPE svg PUBLIC "-//W3C//DTD SVG 20010904//EN"
 "http://www.w3.org/TR/2001/REC-SVG-20010904/DTD/svg10.dtd">
<svg version="1.0" xmlns="http://www.w3.org/2000/svg"
 width="1000.000000pt" height="1000.000000pt" viewBox="0 0 1000.000000 1000.000000"
 preserveAspectRatio="xMidYMid meet">
<metadata>
Created by potrace 1.14, written by Peter Selinger 2001-2017
</metadata>
<g transform="translate(0.000000,1000.000000) scale(0.100000,-0.100000)"
fill="#000000" stroke="none">
<path d="M4415 9623 c-123 -11 -303 -63 -440 -129 -146 -70 -240 -138 -370
-268 -98 -99 -132 -141 -184 -230 -78 -132 -90 -164 -91 -239 0 -75 -8 -89
-72 -126 -67 -38 -182 -155 -242 -245 -82 -124 -153 -332 -197 -581 -21 -115
-24 -161 -24 -400 0 -240 2 -282 22 -380 42 -203 105 -384 153 -435 l28 -30
-96 0 c-65 -1 -103 -5 -115 -14 -26 -20 -40 -68 -28 -99 17 -45 57 -57 184
-57 l115 0 -15 -67 c-17 -82 -19 -236 -3 -320 52 -290 269 -535 555 -629 65
-22 105 -27 215 -31 150 -6 252 12 364 61 212 94 386 294 457 526 20 62 24 97
23 205 0 72 -1 153 -3 180 -10 123 112 244 244 245 94 0 194 -68 233 -159 11
-27 15 -82 16 -221 2 -162 5 -194 25 -255 39 -119 108 -239 188 -325 119 -127
246 -202 412 -242 115 -27 320 -22 426 12 290 91 512 340 565 633 20 109 13
274 -16 370 -5 15 5 17 110 17 132 0 159 7 181 50 18 35 13 64 -18 98 -20 21
-27 22 -186 22 l-166 1 -35 55 c-38 61 -131 156 -199 205 -61 43 -193 105
-271 126 -49 14 -102 18 -220 18 -172 -1 -268 -19 -385 -75 -65 -31 -145 -94
-145 -114 0 -7 -12 -23 -26 -37 -36 -33 -105 -125 -134 -177 l-24 -43 -34 41
c-99 118 -263 167 -411 121 -69 -21 -119 -54 -172 -113 l-36 -40 -31 50 c-17
28 -56 80 -87 116 -30 36 -51 66 -45 66 22 0 8 30 -32 65 -53 48 -161 98 -263
121 -113 26 -383 26 -475 1 -85 -23 -215 -85 -282 -135 -67 -50 -155 -143
-193 -204 -30 -47 -31 -48 -83 -48 l-53 0 22 29 c20 27 21 36 13 98 -24 179
52 616 155 888 49 130 106 226 230 386 184 236 328 384 356 363 7 -5 43 -35
81 -67 86 -72 228 -146 382 -197 235 -79 424 -105 752 -105 246 0 344 11 505
57 166 46 368 139 440 202 l39 33 29 -61 c24 -51 65 -97 240 -273 156 -157
221 -228 246 -274 65 -118 125 -335 201 -734 34 -180 55 -256 72 -266 38 -24
92 56 152 226 79 225 100 366 101 670 0 181 -4 252 -19 335 -48 271 -176 542
-336 714 l-58 61 35 40 c109 125 164 355 130 547 -44 245 -207 398 -425 398
-81 0 -154 -19 -284 -74 -200 -85 -293 -106 -466 -106 -113 0 -194 15 -527
100 -110 28 -240 57 -290 65 -81 14 -282 18 -390 8z m-220 -2888 c203 -123
325 -340 325 -580 0 -298 -184 -552 -470 -648 -86 -29 -203 -40 -287 -28 -166
25 -287 85 -403 201 -130 130 -192 278 -193 465 -1 181 46 312 161 451 54 65
57 67 60 41 4 -32 6 -33 40 -7 67 53 452 135 653 139 47 1 64 -4 114 -34z
m1706 20 c218 -26 400 -70 494 -119 22 -11 46 -21 52 -21 16 0 88 -95 119
-157 69 -137 89 -351 44 -493 -83 -265 -294 -446 -567 -485 -217 -32 -455 60
-600 232 -272 321 -195 808 163 1023 68 41 98 43 295 20z"/>
<path d="M3946 6345 c-76 -27 -136 -110 -136 -190 0 -78 56 -158 132 -189 68
-29 146 -15 204 36 92 81 96 204 10 294 -59 61 -131 78 -210 49z"/>
<path d="M5715 6345 c-82 -29 -146 -138 -130 -222 10 -52 28 -85 69 -121 58
-51 136 -65 204 -36 144 60 175 239 59 341 -58 51 -128 64 -202 38z"/>
<path d="M4282 4944 c-31 -21 -29 -88 6 -189 48 -138 135 -252 250 -329 370
-246 859 -65 986 363 32 109 15 171 -47 171 -22 0 -28 -6 -37 -39 -13 -51 -43
-87 -91 -111 -36 -19 -60 -20 -432 -20 -393 0 -394 0 -438 23 -46 25 -89 84
-89 125 0 19 -5 22 -43 22 -23 0 -53 -7 -65 -16z"/>
<path d="M3885 3704 c-380 -65 -654 -193 -779 -363 -64 -87 -113 -221 -116
-316 -1 -28 -8 -33 -117 -85 -144 -68 -259 -136 -366 -217 -202 -151 -380
-326 -523 -515 -80 -105 -204 -303 -204 -325 0 -16 141 -172 267 -294 359
-352 796 -642 1261 -839 138 -58 305 -120 323 -120 5 0 9 311 9 779 l0 779
120 -60 120 -60 0 -757 0 -758 123 -27 c303 -66 585 -96 897 -96 667 0 1282
149 1875 454 434 223 815 516 1156 888 49 54 89 104 89 111 0 8 -29 62 -65
121 -186 306 -469 599 -770 796 -44 28 -146 84 -227 123 -140 68 -147 73 -148
102 -1 53 -26 149 -53 209 -63 137 -169 237 -342 322 -161 79 -353 129 -647
170 l-48 6 0 -329 c0 -181 -5 -366 -10 -412 -25 -195 -100 -344 -245 -487 -79
-78 -107 -98 -196 -142 -147 -72 -206 -86 -369 -86 -163 0 -222 14 -369 86
-89 44 -117 64 -196 142 -145 143 -220 292 -245 487 -5 46 -10 231 -10 411 l0
328 -27 -1 c-16 0 -91 -11 -168 -25z m2255 -2949 c-34 -54 -101 -69 -158 -35
-63 39 -62 25 -62 719 l0 629 118 59 117 60 3 -700 c2 -688 2 -700 -18 -732z"/>
</g>
</svg>
